<svg width="142" height="142" viewBox="0 0 142 142" fill="none" xmlns="http://www.w3.org/2000/svg">
<rect width="142" height="142" rx="71" fill="white"/>
<path d="M56.5 34C52.5993 34 48.7862 35.1575 45.5429 37.3263C42.2996 39.495 39.7718 42.5774 38.279 46.1839C36.7863 49.7903 36.3957 53.7587 37.1567 57.5873C37.9177 61.4159 39.7961 64.9326 42.5543 67.6929C45.3125 70.4531 48.8266 72.3329 52.6524 73.0944C56.4781 73.856 60.4436 73.4651 64.0474 71.9713C67.6511 70.4775 70.7313 67.9478 72.8984 64.702C75.0655 61.4563 76.2222 57.6404 76.2222 53.7368C76.2222 48.5023 74.1444 43.4822 70.4457 39.7808C66.7471 36.0794 61.7307 34 56.5 34ZM56.5 65.5789C54.1596 65.5789 51.8717 64.8844 49.9258 63.5832C47.9798 62.282 46.4631 60.4325 45.5674 58.2686C44.6718 56.1048 44.4374 53.7237 44.894 51.4266C45.3506 49.1294 46.4776 47.0194 48.1326 45.3632C49.7875 43.7071 51.896 42.5792 54.1914 42.1223C56.4869 41.6653 58.8662 41.8999 61.0284 42.7962C63.1907 43.6925 65.0388 45.2103 66.3391 47.1577C67.6393 49.1051 68.3333 51.3947 68.3333 53.7368C68.3333 56.8776 67.0866 59.8897 64.8674 62.1105C62.6483 64.3313 59.6384 65.5789 56.5 65.5789ZM92 109V105.053C92 97.7243 89.091 90.6961 83.9129 85.5142C78.7348 80.3322 71.7118 77.4211 64.3889 77.4211H48.6111C41.2882 77.4211 34.2652 80.3322 29.0871 85.5142C23.909 90.6961 21 97.7243 21 105.053V109H28.8889V105.053C28.8889 99.8181 30.9668 94.798 34.6654 91.0966C38.364 87.3952 43.3805 85.3158 48.6111 85.3158H64.3889C69.6195 85.3158 74.636 87.3952 78.3346 91.0966C82.0332 94.798 84.1111 99.8181 84.1111 105.053V109H92Z" fill="black"/>
<path d="M84.7 65H122.3C124.892 65 127 67.1304 127 69.75V74.5H80V69.75C80 67.1304 82.108 65 84.7 65ZM127 98.25C127 100.87 124.892 103 122.3 103H84.7C82.108 103 80 100.87 80 98.25V84H127V98.25ZM119.95 91.125H105.85V95.875H119.95V91.125Z" fill="black"/>
<path d="M110.7 46H132.3C133.789 46 135 47.2334 135 48.75V51.5H108V48.75C108 47.2334 109.211 46 110.7 46ZM135 65.25C135 66.7666 133.789 68 132.3 68H110.7C109.211 68 108 66.7666 108 65.25V57H135V65.25ZM130.95 61.125H122.85V63.875H130.95V61.125Z" fill="black"/>
<path d="M110.7 46H132.3C133.789 46 135 47.2334 135 48.75V51.5H108V48.75C108 47.2334 109.211 46 110.7 46ZM135 65.25C135 66.7666 133.789 68 132.3 68H110.7C109.211 68 108 66.7666 108 65.25V57H135V65.25ZM130.95 61.125H122.85V63.875H130.95V61.125Z" fill="black"/>
<path d="M94.1 32H110.9C112.058 32 113 32.9531 113 34.125V36.25H92V34.125C92 32.9531 92.9419 32 94.1 32ZM113 46.875C113 48.0469 112.058 49 110.9 49H94.1C92.9419 49 92 48.0469 92 46.875V40.5H113V46.875ZM109.85 43.6875H103.55V45.8125H109.85V43.6875Z" fill="black"/>
</svg>
